<?xml version="1.0" encoding="utf-8"?>
<!-- Generator: Adobe Illustrator 24.2.3, SVG Export Plug-In . SVG Version: 6.00 Build 0)  -->
<svg version="1.1" id="Capa_1" xmlns="http://www.w3.org/2000/svg" xmlns:xlink="http://www.w3.org/1999/xlink" x="0px" y="0px"
	 viewBox="0 0 500 500" style="enable-background:new 0 0 500 500;" xml:space="preserve">
<style type="text/css">
	.st0{fill:#70926C;}
	.st1{fill:#128807;}
	.st2{fill:#FF9933;}
	.st3{fill:#7F6E62;}
	.st4{fill:#053A0A;}
</style>
<g id="Capa_1_1_">
</g>
<g id="Capa_2_2_">
	<polygon class="st0" points="268.5,129 193.5,101 182.5,108 212.5,199 213.5,271 211.5,287 221.5,369 236.5,353 239.5,279 	"/>
	<polygon class="st1" points="230.5,238 283.5,238 276.5,309 265.5,337 271.5,374 261.5,384 261.5,399 245.5,376 247.5,336 	"/>
	<path class="st2" d="M310.5,120l-48,11l-47-10l-14,4l22,39l1,81l63-2l5-80l25-35L310.5,120z M258.5,158l-29-13l53-1L258.5,158z"/>
	<circle class="st3" cx="257" cy="139.5" r="19.5"/>
	<polygon class="st4" points="246.5,332.3 246.5,299 231.6,245.7 	"/>
</g>
</svg>
